<?xml version="1.0" encoding="UTF-8" standalone="no"?>
<!-- Created with Inkscape (http://www.inkscape.org/) -->

<svg
   width="297mm"
   height="210mm"
   viewBox="0 0 297 210"
   version="1.1"
   id="svg1"
   xml:space="preserve"
   xmlns:inkscape="http://www.inkscape.org/namespaces/inkscape"
   xmlns:sodipodi="http://sodipodi.sourceforge.net/DTD/sodipodi-0.dtd"
   xmlns="http://www.w3.org/2000/svg"
   xmlns:svg="http://www.w3.org/2000/svg"><sodipodi:namedview
     id="namedview1"
     pagecolor="#ffffff"
     bordercolor="#000000"
     borderopacity="0.25"
     inkscape:showpageshadow="2"
     inkscape:pageopacity="0.0"
     inkscape:pagecheckerboard="0"
     inkscape:deskcolor="#d1d1d1"
     inkscape:document-units="mm"
     showgrid="true"><inkscape:grid
       id="grid1"
       units="mm"
       originx="0"
       originy="0"
       spacingx="1"
       spacingy="0.99999998"
       empcolor="#0099e5"
       empopacity="0.30196078"
       color="#0099e5"
       opacity="0.14901961"
       empspacing="5"
       enabled="true"
       visible="true" /><inkscape:page
       x="0"
       y="0"
       width="297"
       height="210"
       id="page2"
       margin="0"
       bleed="0" /></sodipodi:namedview><defs
     id="defs1" /><g
     inkscape:label="Layer 1"
     inkscape:groupmode="layer"
     id="layer1"><g
       id="layer1-5"
       transform="translate(11.580623,41.6959)"><g
         id="g1"
         transform="matrix(4.2040659,0,0,-4.2040659,-576.04336,523.29347)" /><path
         style="fill:#02445a;fill-opacity:0.301883;stroke:#07e96f;stroke-width:2.03339;stroke-miterlimit:3.8;stroke-dasharray:none;stroke-opacity:1"
         d="M 373.16589,262.38516 C 361.00743,282.3917 272.82218,411.04442 256.67354,411.33015 l -15.51998,0.27461 -52.28847,-0.0106 c -86.44268,-0.007 -137.20412,-0.71119 -141.724489,-1.96665 -3.873615,-1.07584 -8.79291,-4.1808 -10.931766,-6.8999 -3.832106,-4.87175 -3.888831,-6.85262 -3.888831,-135.80251 V 136.06644 l 5.688068,-6.47835 5.688068,-6.47835 260.41569,-1.42016 c 143.22863,-0.78109 370.14656,-0.77986 504.26207,0.003 l 243.8464,1.42289 6.2193,6.21935 6.2194,6.21934 v 130.99836 130.99837 l -6.7584,6.55176 -6.7583,6.55178 -142.00876,0.95059 -68.68497,-0.18416 -10.45647,-0.56724 C 811.41167,409.84567 730.02203,281.76279 718.65288,264.98121 L 706.30331,246.75247 H 547.51348 388.72364 Z"
         id="path2"
         transform="scale(0.26458333)"
         sodipodi:nodetypes="csccssscccsccccccccccsscacc" /></g></g></svg>
