<?xml version="1.0" encoding="UTF-8" standalone="no"?>
<!-- Created with Inkscape (http://www.inkscape.org/) -->

<svg
   width="297mm"
   height="210mm"
   viewBox="0 0 297 210"
   version="1.1"
   id="svg1"
   xml:space="preserve"
   xmlns="http://www.w3.org/2000/svg"
   xmlns:svg="http://www.w3.org/2000/svg"><defs
     id="defs1" /><g
     id="layer1"><g
       id="g1"
       transform="matrix(4.2040659,0,0,-4.2040659,-576.04336,523.29347)"><path
         d="m 139.60097,117.14255 c -0.4135,-0.18785 -0.83072,-0.6468 -0.98515,-1.08367 -0.16825,-0.47598 -0.16984,-16.25587 -0.002,-16.73108 0.16456,-0.46507 0.49859,-0.8202 0.98409,-1.04628 0.41243,-0.19206 0.49921,-0.19877 2.57858,-0.19957 l 14.99653,-8.3e-4 1.57356,-0.81687 c 0.86545,-0.449276 2.04364,-2.282798 2.28917,-2.415598 1.6166,0.04497 6.93703,-0.0022 10.41803,-0.0022 h 10.24084 c 0,0 1.22585,1.574805 2.00863,2.176306 0.60009,0.461122 2.00864,1.05833 2.00864,1.05833 l 2.1877,4.7e-4 c 9.66382,3.1e-4 15.14026,0.0304 15.33432,0.0843 0.45016,0.12506 0.97236,0.61474 1.15197,1.08026 0.14613,0.37873 0.15483,0.857862 0.15483,8.529272 v 8.128 l -0.18275,0.33867 c -0.23321,0.4322 -0.5794,0.76005 -0.9787,0.92684 -0.2827,0.11809 -3.53138,0.1313 -31.877,0.12963 -30.34553,-0.002 -31.5753,-0.008 -31.90161,-0.15604 z m 63.65294,-0.29515 c 0.3151,-0.13166 0.79747,-0.64706 0.86508,-0.92433 0.0253,-0.10392 0.0354,-3.86858 0.0224,-8.3659 l -0.0237,-8.17694 -0.24417,-0.32011 c -0.13429,-0.17605 -0.40099,-0.39131 -0.59266,-0.47836 -0.33615,-0.15264 -0.88348,-0.15832 -15.44107,-0.16011 l -2.24783,-0.002 c 0,0 -1.41422,-0.596843 -2.01722,-1.05834 -0.78548,-0.60116 -2.01721,-2.176296 -2.01721,-2.176296 h -10.10198 -10.10197 c 0,0 -1.23601,1.575381 -2.02346,2.176296 -0.60511,0.461766 -2.02346,1.05834 -2.02346,1.05834 l -15.02086,0.002 c -2.46474,0.002 -2.66279,0.0427 -3.11727,0.63847 l -0.24417,0.3201 -0.0245,8.09229 c -0.0135,4.45075 -0.002,8.21692 0.0253,8.36925 0.0602,0.33484 0.49368,0.84929 0.84424,1.00204 0.38569,0.16805 63.08235,0.17161 63.48445,0.004 z"
         style="fill:#07e9e5;fill-opacity:1;stroke:#07e9e5;stroke-width:0.167457;stroke-dasharray:none;stroke-opacity:1"
         id="path1-6" /></g><path
       style="fill:#02445a;fill-opacity:0.301883;stroke:#07e96f;stroke-width:5.05862;stroke-miterlimit:3.8;stroke-dasharray:none;stroke-opacity:1"
       d="M 373.16589,446.06669 C 360.05684,431.85205 354.92762,427.81241 340.57741,420.4008 l -17.03076,-8.79604 -134.68156,-0.0106 c -86.44268,-0.007 -137.20412,-0.71119 -141.724489,-1.96665 -3.873615,-1.07584 -8.79291,-4.1808 -10.931766,-6.8999 -3.832106,-4.87175 -3.888831,-6.85262 -3.888831,-135.80251 V 136.06644 l 5.688068,-6.47835 5.688068,-6.47835 260.41569,-1.42016 c 143.22863,-0.78109 370.14656,-0.77986 504.26207,0.003 l 243.8464,1.42289 6.2193,6.21935 6.2194,6.21934 v 130.99836 130.99837 l -6.7584,6.55176 -6.7583,6.55178 -142.00876,0.95059 -142.00873,0.95059 -10.45647,5.4786 c -16.48243,8.63585 -24.75296,15.2993 -38.01546,30.62853 l -12.34957,14.27405 H 547.51348 388.72364 Z"
       id="path2"
       transform="scale(0.26458333)" /></g></svg>
